<?xml version="1.0" standalone="no"?><!DOCTYPE svg PUBLIC "-//W3C//DTD SVG 1.1//EN" "http://www.w3.org/Graphics/SVG/1.1/DTD/svg11.dtd"><svg class="icon" width="200px" height="200.00px" viewBox="0 0 1024 1024" version="1.1" xmlns="http://www.w3.org/2000/svg"><path  d="M512 128 128 326.4 896 326.4ZM128 832l768 0 0 64-768 0 0-64ZM230.4 384l0 384c0 19.2 12.8 32 32 32s32-12.8 32-32L294.4 384c0-19.2-12.8-32-32-32S230.4 364.8 230.4 384zM390.4 384l0 384c0 19.2 12.8 32 32 32s32-12.8 32-32L454.4 384c0-19.2-12.8-32-32-32S390.4 364.8 390.4 384zM569.6 384l0 384c0 19.2 12.8 32 32 32s32-12.8 32-32L633.6 384c0-19.2-12.8-32-32-32S569.6 364.8 569.6 384zM736 384l0 384c0 19.2 12.8 32 32 32s32-12.8 32-32L800 384c0-19.2-12.8-32-32-32S736 364.8 736 384z" /></svg>
